<svg id="visual" viewBox="0 0 540 960" width="540" height="960" xmlns="http://www.w3.org/2000/svg" xmlns:xlink="http://www.w3.org/1999/xlink" version="1.1"><rect x="0" y="0" width="540" height="960" fill="#FFFFFF"></rect><defs><linearGradient id="grad1_0" x1="0%" y1="100%" x2="100%" y2="0%"><stop offset="30%" stop-color="#185242" stop-opacity="1"></stop><stop offset="70%" stop-color="#185242" stop-opacity="1"></stop></linearGradient></defs><defs><linearGradient id="grad1_1" x1="0%" y1="100%" x2="100%" y2="0%"><stop offset="30%" stop-color="#185242" stop-opacity="1"></stop><stop offset="70%" stop-color="#ffffff" stop-opacity="1"></stop></linearGradient></defs><defs><linearGradient id="grad2_0" x1="0%" y1="100%" x2="100%" y2="0%"><stop offset="30%" stop-color="#185242" stop-opacity="1"></stop><stop offset="70%" stop-color="#185242" stop-opacity="1"></stop></linearGradient></defs><defs><linearGradient id="grad2_1" x1="0%" y1="100%" x2="100%" y2="0%"><stop offset="30%" stop-color="#ffffff" stop-opacity="1"></stop><stop offset="70%" stop-color="#185242" stop-opacity="1"></stop></linearGradient></defs><g transform="translate(540, 960)"><path d="M-189 0C-186.3 -11.8 -183.7 -23.7 -182.4 -36.3C-181.2 -48.9 -181.4 -62.3 -174.6 -72.3C-167.9 -82.4 -154.2 -89 -143.8 -96.1C-133.5 -103.2 -126.5 -110.7 -120.9 -120.9C-115.3 -131.1 -111 -144.1 -103.3 -154.7C-95.6 -165.2 -84.5 -173.4 -71.9 -173.7C-59.4 -174 -45.6 -166.5 -33.4 -167.7C-21.1 -169 -10.6 -179 0 -189L0 0Z" fill="#8aa59b"></path><path d="M-94.5 0C-93.2 -5.9 -91.8 -11.8 -91.2 -18.1C-90.6 -24.5 -90.7 -31.1 -87.3 -36.2C-83.9 -41.2 -77.1 -44.5 -71.9 -48.1C-66.8 -51.6 -63.3 -55.3 -60.5 -60.5C-57.6 -65.6 -55.5 -72 -51.7 -77.3C-47.8 -82.6 -42.2 -86.7 -36 -86.8C-29.7 -87 -22.8 -83.2 -16.7 -83.9C-10.6 -84.5 -5.3 -89.5 0 -94.5L0 0Z" fill="#185242"></path></g><g transform="translate(0, 0)"><path d="M189 0C180.3 10.9 171.6 21.8 169.7 33.8C167.7 45.7 172.4 58.8 170.9 70.8C169.4 82.8 161.6 93.6 152.2 101.7C142.7 109.8 131.6 115.1 123.7 123.7C115.8 132.4 111.1 144.3 103.3 154.7C95.6 165 84.7 173.7 72.3 174.6C60 175.5 46.1 168.6 33.8 169.7C21.4 170.8 10.7 179.9 0 189L0 0Z" fill="#8aa59b"></path><path d="M94.5 0C90.2 5.4 85.8 10.9 84.8 16.9C83.9 22.9 86.2 29.4 85.5 35.4C84.7 41.4 80.8 46.8 76.1 50.8C71.4 54.9 65.8 57.6 61.9 61.9C57.9 66.2 55.6 72.2 51.7 77.3C47.8 82.5 42.3 86.9 36.2 87.3C30 87.8 23 84.3 16.9 84.8C10.7 85.4 5.4 89.9 0 94.5L0 0Z" fill="#185242"></path></g></svg>