<svg data-v-423bf9ae="" xmlns="http://www.w3.org/2000/svg" viewBox="0 0 714 90" class="iconLeftSlogan"><!----><!----><!----><g data-v-423bf9ae="" id="5d2542df-fe9a-45a2-860a-a5116e3bba8d" fill="#0E261C" transform="matrix(6.0667338371276855,0,0,6.0667338371276855,185.71011352539062,-6.0667338371276855)"><path d="M12.95 10.64L10.42 10.64L10.42 5.37L10.42 5.37Q10.42 4.85 10.33 4.42L10.33 4.42L10.33 4.42Q10.24 3.99 10.00 3.69L10.00 3.69L10.00 3.69Q9.75 3.38 9.32 3.22L9.32 3.22L9.32 3.22Q8.89 3.05 8.20 3.05L8.20 3.05L8.20 3.05Q7.68 3.05 7.11 3.19L7.11 3.19L7.11 3.19Q6.54 3.33 5.98 3.56L5.98 3.56L5.98 3.56Q5.42 3.79 4.91 4.10L4.91 4.10L4.91 4.10Q4.40 4.41 4.01 4.74L4.01 4.74L4.01 10.64L1.47 10.64L1.47 1.24L4.01 1.24L4.01 2.53L4.01 2.53Q4.48 2.26 5.02 1.99L5.02 1.99L5.02 1.99Q5.56 1.72 6.17 1.50L6.17 1.50L6.17 1.50Q6.78 1.28 7.46 1.14L7.46 1.14L7.46 1.14Q8.15 1.00 8.91 1.00L8.91 1.00L8.91 1.00Q9.86 1.00 10.61 1.23L10.61 1.23L10.61 1.23Q11.35 1.46 11.87 1.88L11.87 1.88L11.87 1.88Q12.39 2.30 12.67 2.90L12.67 2.90L12.67 2.90Q12.95 3.50 12.95 4.24L12.95 4.24L12.95 10.64ZM26.32 7.98L26.32 10.17L26.32 10.17Q25.16 10.55 24.01 10.72L24.01 10.72L24.01 10.72Q22.86 10.89 21.66 10.89L21.66 10.89L21.66 10.89Q20.12 10.89 18.92 10.56L18.92 10.56L18.92 10.56Q17.72 10.23 16.90 9.60L16.90 9.60L16.90 9.60Q16.08 8.97 15.65 8.06L15.65 8.06L15.65 8.06Q15.22 7.15 15.22 6.00L15.22 6.00L15.22 6.00Q15.22 4.94 15.65 4.02L15.65 4.02L15.65 4.02Q16.08 3.11 16.88 2.44L16.88 2.44L16.88 2.44Q17.68 1.76 18.81 1.38L18.81 1.38L18.81 1.38Q19.93 1.00 21.32 1.00L21.32 1.00L21.32 1.00Q22.60 1.00 23.66 1.35L23.66 1.35L23.66 1.35Q24.73 1.70 25.49 2.37L25.49 2.37L25.49 2.37Q26.25 3.05 26.67 4.04L26.67 4.04L26.67 4.04Q27.09 5.03 27.09 6.32L27.09 6.32L27.09 6.95L17.83 6.95L17.83 6.95Q17.96 7.40 18.24 7.77L18.24 7.77L18.24 7.77Q18.53 8.13 19.01 8.39L19.01 8.39L19.01 8.39Q19.50 8.65 20.20 8.80L20.20 8.80L20.20 8.80Q20.91 8.94 21.90 8.94L21.90 8.94L21.90 8.94Q22.59 8.94 23.26 8.86L23.26 8.86L23.26 8.86Q23.93 8.77 24.51 8.63L24.51 8.63L24.51 8.63Q25.09 8.49 25.56 8.32L25.56 8.32L25.56 8.32Q26.03 8.15 26.32 7.98L26.32 7.98ZM17.83 5.09L24.57 5.09L24.57 5.09Q24.53 4.74 24.36 4.37L24.36 4.37L24.36 4.37Q24.19 4.00 23.81 3.70L23.81 3.70L23.81 3.70Q23.43 3.40 22.83 3.20L22.83 3.20L22.83 3.20Q22.22 3.01 21.31 3.01L21.31 3.01L21.31 3.01Q20.45 3.01 19.83 3.22L19.83 3.22L19.83 3.22Q19.21 3.43 18.79 3.75L18.79 3.75L18.79 3.75Q18.37 4.06 18.14 4.42L18.14 4.42L18.14 4.42Q17.90 4.79 17.83 5.09L17.83 5.09ZM35.44 1.00L35.44 1.00L35.44 1.00Q36.83 1.00 38.01 1.24L38.01 1.24L38.01 1.24Q39.20 1.48 40.19 1.85L40.19 1.85L40.19 4.14L40.19 4.14Q39.80 3.92 39.31 3.72L39.31 3.72L39.31 3.72Q38.82 3.51 38.25 3.36L38.25 3.36L38.25 3.36Q37.67 3.20 37.02 3.10L37.02 3.10L37.02 3.10Q36.36 3.01 35.64 3.01L35.64 3.01L35.64 3.01Q34.73 3.01 34.06 3.14L34.06 3.14L34.06 3.14Q33.39 3.27 32.92 3.49L32.92 3.49L32.92 3.49Q32.44 3.71 32.13 4.00L32.13 4.00L32.13 4.00Q31.82 4.29 31.64 4.61L31.64 4.61L31.64 4.61Q31.47 4.94 31.40 5.28L31.40 5.28L31.40 5.28Q31.33 5.63 31.33 5.95L31.33 5.95L31.33 5.95Q31.33 6.23 31.39 6.56L31.39 6.56L31.39 6.56Q31.45 6.88 31.61 7.21L31.61 7.21L31.61 7.21Q31.77 7.54 32.05 7.84L32.05 7.84L32.05 7.84Q32.34 8.14 32.80 8.37L32.80 8.37L32.80 8.37Q33.26 8.61 33.91 8.75L33.91 8.75L33.91 8.75Q34.56 8.89 35.46 8.89L35.46 8.89L35.46 8.89Q35.91 8.89 36.24 8.86L36.24 8.86L36.24 8.86Q36.58 8.83 36.86 8.78L36.86 8.78L36.86 8.78Q37.13 8.74 37.38 8.67L37.38 8.67L37.38 8.67Q37.62 8.60 37.88 8.52L37.88 8.52L37.88 7.39L35.03 7.39L35.03 5.33L40.41 5.33L40.41 10.13L40.41 10.13Q39.91 10.30 39.28 10.44L39.28 10.44L39.28 10.44Q38.66 10.58 37.99 10.68L37.99 10.68L37.99 10.68Q37.32 10.78 36.65 10.83L36.65 10.83L36.65 10.83Q35.98 10.89 35.39 10.89L35.39 10.89L35.39 10.89Q34.47 10.89 33.62 10.77L33.62 10.77L33.62 10.77Q32.77 10.64 32.04 10.39L32.04 10.39L32.04 10.39Q31.30 10.13 30.70 9.73L30.70 9.73L30.70 9.73Q30.09 9.34 29.66 8.79L29.66 8.79L29.66 8.79Q29.24 8.24 29.00 7.54L29.00 7.54L29.00 7.54Q28.77 6.83 28.77 5.95L28.77 5.95L28.77 5.95Q28.77 5.07 29.01 4.36L29.01 4.36L29.01 4.36Q29.26 3.65 29.70 3.10L29.70 3.10L29.70 3.10Q30.14 2.56 30.76 2.16L30.76 2.16L30.76 2.16Q31.38 1.76 32.12 1.51L32.12 1.51L32.12 1.51Q32.86 1.25 33.70 1.13L33.70 1.13L33.70 1.13Q34.55 1.00 35.44 1.00ZM55.30 5.95L55.30 5.95L55.30 5.95Q55.30 7.16 54.85 8.08L54.85 8.08L54.85 8.08Q54.41 9.01 53.58 9.63L53.58 9.63L53.58 9.63Q52.75 10.25 51.57 10.57L51.57 10.57L51.57 10.57Q50.39 10.89 48.92 10.89L48.92 10.89L48.92 10.89Q47.46 10.89 46.27 10.57L46.27 10.57L46.27 10.57Q45.08 10.25 44.25 9.63L44.25 9.63L44.25 9.63Q43.42 9.01 42.96 8.08L42.96 8.08L42.96 8.08Q42.51 7.16 42.51 5.95L42.51 5.95L42.51 5.95Q42.51 4.74 42.96 3.81L42.96 3.81L42.96 3.81Q43.42 2.88 44.25 2.26L44.25 2.26L44.25 2.26Q45.08 1.64 46.27 1.32L46.27 1.32L46.27 1.32Q47.46 1.00 48.92 1.00L48.92 1.00L48.92 1.00Q50.39 1.00 51.57 1.32L51.57 1.32L51.57 1.32Q52.75 1.64 53.58 2.26L53.58 2.26L53.58 2.26Q54.41 2.88 54.85 3.81L54.85 3.81L54.85 3.81Q55.30 4.74 55.30 5.95ZM52.73 5.95L52.73 5.95L52.73 5.95Q52.73 5.42 52.56 4.90L52.56 4.90L52.56 4.90Q52.40 4.38 51.97 3.96L51.97 3.96L51.97 3.96Q51.54 3.54 50.80 3.28L50.80 3.28L50.80 3.28Q50.07 3.02 48.92 3.02L48.92 3.02L48.92 3.02Q48.16 3.02 47.58 3.14L47.58 3.14L47.58 3.14Q47.00 3.26 46.57 3.47L46.57 3.47L46.57 3.47Q46.15 3.68 45.86 3.97L45.86 3.97L45.86 3.97Q45.58 4.25 45.40 4.58L45.40 4.58L45.40 4.58Q45.23 4.90 45.16 5.25L45.16 5.25L45.16 5.25Q45.09 5.61 45.09 5.95L45.09 5.95L45.09 5.95Q45.09 6.30 45.16 6.65L45.16 6.65L45.16 6.65Q45.23 7.01 45.40 7.33L45.40 7.33L45.40 7.33Q45.58 7.66 45.86 7.94L45.86 7.94L45.86 7.94Q46.15 8.22 46.57 8.43L46.57 8.43L46.57 8.43Q47.00 8.63 47.58 8.75L47.58 8.75L47.58 8.75Q48.16 8.87 48.92 8.87L48.92 8.87L48.92 8.87Q50.07 8.87 50.80 8.61L50.80 8.61L50.80 8.61Q51.54 8.35 51.97 7.94L51.97 7.94L51.97 7.94Q52.40 7.52 52.56 7.00L52.56 7.00L52.56 7.00Q52.73 6.47 52.73 5.95ZM67.01 10.64L57.06 10.64L57.06 8.67L63.23 3.30L57.24 3.30L57.24 1.24L66.88 1.24L66.88 2.97L60.42 8.58L67.01 8.58L67.01 10.64ZM71.86 10.64L69.32 10.64L69.32 1.24L71.86 1.24L71.86 10.64ZM86.95 5.95L86.95 5.95L86.95 5.95Q86.95 7.16 86.51 8.08L86.51 8.08L86.51 8.08Q86.06 9.01 85.24 9.63L85.24 9.63L85.24 9.63Q84.41 10.25 83.23 10.57L83.23 10.57L83.23 10.57Q82.05 10.89 80.58 10.89L80.58 10.89L80.58 10.89Q79.11 10.89 77.93 10.57L77.93 10.57L77.93 10.57Q76.74 10.25 75.91 9.63L75.91 9.63L75.91 9.63Q75.07 9.01 74.62 8.08L74.62 8.08L74.62 8.08Q74.17 7.16 74.17 5.95L74.17 5.95L74.17 5.95Q74.17 4.74 74.62 3.81L74.62 3.81L74.62 3.81Q75.07 2.88 75.91 2.26L75.91 2.26L75.91 2.26Q76.74 1.64 77.93 1.32L77.93 1.32L77.93 1.32Q79.11 1.00 80.58 1.00L80.58 1.00L80.58 1.00Q82.05 1.00 83.23 1.32L83.23 1.32L83.23 1.32Q84.41 1.64 85.24 2.26L85.24 2.26L85.24 2.26Q86.06 2.88 86.51 3.81L86.51 3.81L86.51 3.81Q86.95 4.74 86.95 5.95ZM84.39 5.95L84.39 5.95L84.39 5.95Q84.39 5.42 84.22 4.90L84.22 4.90L84.22 4.90Q84.05 4.38 83.63 3.96L83.63 3.96L83.63 3.96Q83.20 3.54 82.46 3.28L82.46 3.28L82.46 3.28Q81.72 3.02 80.58 3.02L80.58 3.02L80.58 3.02Q79.82 3.02 79.24 3.14L79.24 3.14L79.24 3.14Q78.65 3.26 78.23 3.47L78.23 3.47L78.23 3.47Q77.81 3.68 77.52 3.97L77.52 3.97L77.52 3.97Q77.23 4.25 77.06 4.58L77.06 4.58L77.06 4.58Q76.89 4.90 76.82 5.25L76.82 5.25L76.82 5.25Q76.75 5.61 76.75 5.95L76.75 5.95L76.75 5.95Q76.75 6.30 76.82 6.65L76.82 6.65L76.82 6.65Q76.89 7.01 77.06 7.33L77.06 7.33L77.06 7.33Q77.23 7.66 77.52 7.94L77.52 7.94L77.52 7.94Q77.81 8.22 78.23 8.43L78.23 8.43L78.23 8.43Q78.65 8.63 79.24 8.75L79.24 8.75L79.24 8.75Q79.82 8.87 80.58 8.87L80.58 8.87L80.58 8.87Q81.72 8.87 82.46 8.61L82.46 8.61L82.46 8.61Q83.20 8.35 83.63 7.94L83.63 7.94L83.63 7.94Q84.05 7.52 84.22 7.00L84.22 7.00L84.22 7.00Q84.39 6.47 84.39 5.95Z"></path></g><defs data-v-423bf9ae=""><linearGradient data-v-423bf9ae="" gradientTransform="rotate(25)" id="1bbaee9a-8d82-4af0-ae3b-789af43042b0" x1="0%" y1="0%" x2="100%" y2="0%"><stop data-v-423bf9ae="" offset="0%" style="stop-color: rgb(10, 55, 50); stop-opacity: 1;"></stop><stop data-v-423bf9ae="" offset="100%" style="stop-color: rgb(85, 195, 136); stop-opacity: 1;"></stop></linearGradient></defs><g data-v-423bf9ae="" id="34b0a208-789f-4e9e-8398-fd1ccb7cbd8e" transform="matrix(2.0225634574890137,0,0,2.0225634574890137,-429.9463195800781,-472.0252685546875)" stroke="none" fill="url(#1bbaee9a-8d82-4af0-ae3b-789af43042b0)"><path d="M216.961 255.627h2.802v1.828h-2.802zM220.972 255.627h2.802v1.828h-2.802zM224.953 255.627h2.802v1.828h-2.802zM228.934 255.627h2.802v1.828h-2.802z"></path><path d="M299.168 256.385a.893.893 0 0 0-.017-.163l-.005-.017a.833.833 0 0 0-.042-.137l-.021-.049a1.063 1.063 0 0 0-.054-.099l-.027-.042a.728.728 0 0 0-.091-.11l-.011-.012-.001-.001-3.445-3.415a.916.916 0 0 0-.644-.265h-4.239v-2.253a.914.914 0 0 0-.914-.914h-.804v-9.467a5.696 5.696 0 0 0-5.69-5.69h-51.842a5.696 5.696 0 0 0-5.69 5.69v6.92h-9.595a3.21 3.21 0 0 0-3.206 3.206v8.407a3.21 3.21 0 0 0 3.206 3.206h9.595v11.801h-5.583c-.703 0-1.364.274-1.862.772a2.636 2.636 0 0 0 1.862 4.496h74.385a2.638 2.638 0 0 0 2.634-2.635 2.637 2.637 0 0 0-2.634-2.634h-5.58v-10.526h1.932a3.307 3.307 0 0 0 3.172 2.389 3.308 3.308 0 0 0 3.17-2.389h1.129a.914.914 0 0 0 .914-.914v-5.137l-.002-.018zm-3.133-.895h-5.464v-1.586h3.863l1.601 1.586zm-9.384 5.137c-.397-1.377-1.666-2.388-3.17-2.388s-2.773 1.011-3.171 2.388h-1.521v-9.891h9.954v9.892h-2.092zm-3.17-.56a1.475 1.475 0 0 1 0 2.949 1.476 1.476 0 0 1 0-2.949zm-68.823-2.093v-8.407c0-.76.618-1.378 1.378-1.378h16.687c.76 0 1.378.618 1.378 1.378v8.407a1.38 1.38 0 0 1-1.378 1.378h-16.687a1.38 1.38 0 0 1-1.378-1.378zm80.582 17.641a.809.809 0 0 1-.807.807h-74.385a.806.806 0 0 1 0-1.612H294.433a.806.806 0 0 1 .807.805zm-52.083-25.897h26.894l2.787 7.215h-32.467l2.786-7.215zm.315-1.829a1.38 1.38 0 0 1 1.35-1.1h23.563c.665 0 1.222.473 1.351 1.1h-26.264zm26.293 10.871v14.221h-13.711V262.56a.914.914 0 0 0-.914-.914h-7.897a.914.914 0 0 0-.914.914v10.421h-2.885V258.76h26.321zm-15.54 14.221h-6.069v-9.507h6.069v9.507zm32.801 0h-15.434V258.76h2.583a.914.914 0 0 0 .82-1.318l-3.403-8.809v-.465a3.21 3.21 0 0 0-3.206-3.206h-23.563a3.21 3.21 0 0 0-3.206 3.206v.465l-3.43 8.884a.913.913 0 0 0 .853 1.243h2.578v14.221h-14.157V261.18h5.264a3.21 3.21 0 0 0 3.207-3.206v-8.407a3.21 3.21 0 0 0-3.207-3.206h-5.264v-6.92a3.866 3.866 0 0 1 3.862-3.862h51.841a3.866 3.866 0 0 1 3.863 3.862v9.467h-9.15a.914.914 0 0 0-.914.914v11.719c0 .505.409.914.914.914h2.435c.397 1.377 1.667 2.389 3.171 2.389s2.772-1.012 3.17-2.389h.375v10.526zm6.931-9.966a1.476 1.476 0 0 1-1.476-1.468l.001-.007-.001-.007a1.475 1.475 0 1 1 1.476 1.482zm3.169-2.388a3.305 3.305 0 0 0-3.169-2.388 3.307 3.307 0 0 0-3.172 2.388h-.214v-3.309h6.771v3.309h-.216z"></path><path d="M259.215 271.115h7.389a.914.914 0 0 0 .914-.913v-7.642a.914.914 0 0 0-.914-.914h-7.389a.914.914 0 0 0-.913.914v7.641c0 .505.409.914.913.914zm.914-7.641h5.561v5.813h-5.561v-5.813z"></path></g><!----><g data-v-423bf9ae="" id="adb90417-dd5e-4b2b-b1e2-c557c0f43a75" fill="#0E261C" transform="matrix(2.3341257572174072,0,0,2.3341257572174072,192.6675262451172,46.74216842651367)"><path d="M0.84 11.87L0.84 9.69L0.84 9.69Q0.84 7.78 1.75 6.73L1.75 6.73L1.75 6.73Q2.66 5.68 4.28 5.68L4.28 5.68L4.28 5.68Q5.91 5.68 6.82 6.73L6.82 6.73L6.82 6.73Q7.73 7.78 7.73 9.69L7.73 9.69L7.73 11.87L7.73 11.87Q7.73 13.83 6.82 14.85L6.82 14.85L6.82 14.85Q5.91 15.88 4.28 15.88L4.28 15.88L4.28 15.88Q2.66 15.88 1.75 14.85L1.75 14.85L1.75 14.85Q0.84 13.83 0.84 11.87L0.84 11.87ZM4.28 14.78L4.28 14.78L4.28 14.78Q5.42 14.78 5.99 14.01L5.99 14.01L5.99 14.01Q6.55 13.23 6.55 11.79L6.55 11.79L6.55 9.77L6.55 9.77Q6.55 8.43 5.99 7.60L5.99 7.60L5.99 7.60Q5.42 6.78 4.28 6.78L4.28 6.78L4.28 6.78Q3.15 6.78 2.58 7.60L2.58 7.60L2.58 7.60Q2.02 8.43 2.02 9.77L2.02 9.77L2.02 11.79L2.02 11.79Q2.02 13.23 2.58 14.01L2.58 14.01L2.58 14.01Q3.15 14.78 4.28 14.78ZM18.94 5.88L21.77 15.18L21.94 15.18L21.94 5.88L23.11 5.88L23.11 15.68L20.76 15.68L17.93 6.38L17.77 6.38L17.77 15.68L16.59 15.68L16.59 5.88L18.94 5.88ZM32.35 15.68L32.35 5.88L33.53 5.88L33.53 14.59L38.65 14.59L38.65 15.68L32.35 15.68ZM47.88 6.97L47.88 5.88L54.10 5.88L54.10 6.97L51.58 6.97L51.58 14.59L54.10 14.59L54.10 15.68L47.88 15.68L47.88 14.59L50.40 14.59L50.40 6.97L47.88 6.97ZM65.65 5.88L68.47 15.18L68.64 15.18L68.64 5.88L69.82 5.88L69.82 15.68L67.47 15.68L64.64 6.38L64.47 6.38L64.47 15.68L63.29 15.68L63.29 5.88L65.65 5.88ZM79.16 15.68L79.16 5.88L85.09 5.88L85.09 6.97L80.33 6.97L80.33 10.22L85.01 10.22L85.01 11.31L80.33 11.31L80.33 14.59L85.18 14.59L85.18 15.68L79.16 15.68ZM115.57 9.21L115.57 8.71L115.57 8.71Q115.57 8.23 115.38 7.87L115.38 7.87L115.38 7.87Q115.19 7.50 114.87 7.27L114.87 7.27L114.87 7.27Q114.55 7.03 114.13 6.90L114.13 6.90L114.13 6.90Q113.71 6.78 113.25 6.78L113.25 6.78L113.25 6.78Q112.84 6.78 112.48 6.88L112.48 6.88L112.48 6.88Q112.11 6.99 111.83 7.18L111.83 7.18L111.83 7.18Q111.54 7.38 111.37 7.66L111.37 7.66L111.37 7.66Q111.20 7.95 111.20 8.33L111.20 8.33L111.20 8.41L111.20 8.41Q111.20 8.82 111.37 9.11L111.37 9.11L111.37 9.11Q111.54 9.39 111.87 9.60L111.87 9.60L111.87 9.60Q112.20 9.80 112.69 9.93L112.69 9.93L112.69 9.93Q113.18 10.07 113.83 10.16L113.83 10.16L113.83 10.16Q115.37 10.40 116.10 11.07L116.10 11.07L116.10 11.07Q116.83 11.73 116.83 12.85L116.83 12.85L116.83 13.02L116.83 13.02Q116.83 13.65 116.61 14.17L116.61 14.17L116.61 14.17Q116.40 14.70 115.97 15.08L115.97 15.08L115.97 15.08Q115.54 15.46 114.91 15.67L114.91 15.67L114.91 15.67Q114.28 15.88 113.46 15.88L113.46 15.88L113.46 15.88Q112.52 15.88 111.80 15.60L111.80 15.60L111.80 15.60Q111.08 15.33 110.59 14.85L110.59 14.85L110.59 14.85Q110.11 14.36 109.86 13.71L109.86 13.71L109.86 13.71Q109.61 13.06 109.61 12.29L109.61 12.29L109.61 11.87L110.78 11.87L110.78 12.21L110.78 12.21Q110.78 13.50 111.49 14.14L111.49 14.14L111.49 14.14Q112.20 14.78 113.46 14.78L113.46 14.78L113.46 14.78Q114.55 14.78 115.10 14.30L115.10 14.30L115.10 14.30Q115.65 13.82 115.65 13.02L115.65 13.02L115.65 12.94L115.65 12.94Q115.65 12.17 115.09 11.76L115.09 11.76L115.09 11.76Q114.52 11.35 113.25 11.17L113.25 11.17L113.25 11.17Q112.50 11.07 111.91 10.87L111.91 10.87L111.91 10.87Q111.31 10.67 110.89 10.34L110.89 10.34L110.89 10.34Q110.47 10.01 110.25 9.55L110.25 9.55L110.25 9.55Q110.03 9.09 110.03 8.46L110.03 8.46L110.03 8.29L110.03 8.29Q110.03 7.71 110.26 7.24L110.26 7.24L110.26 7.24Q110.50 6.76 110.93 6.41L110.93 6.41L110.93 6.41Q111.36 6.06 111.95 5.87L111.95 5.87L111.95 5.87Q112.55 5.68 113.26 5.68L113.26 5.68L113.26 5.68Q114.09 5.68 114.74 5.92L114.74 5.92L114.74 5.92Q115.39 6.16 115.84 6.56L115.84 6.56L115.84 6.56Q116.28 6.96 116.52 7.50L116.52 7.50L116.52 7.50Q116.75 8.04 116.75 8.62L116.75 8.62L116.75 9.21L115.57 9.21ZM125.38 6.97L125.38 5.88L132.27 5.88L132.27 6.97L129.42 6.97L129.42 15.68L128.24 15.68L128.24 6.97L125.38 6.97ZM140.95 11.87L140.95 9.69L140.95 9.69Q140.95 7.78 141.86 6.73L141.86 6.73L141.86 6.73Q142.77 5.68 144.40 5.68L144.40 5.68L144.40 5.68Q146.02 5.68 146.93 6.73L146.93 6.73L146.93 6.73Q147.84 7.78 147.84 9.69L147.84 9.69L147.84 11.87L147.84 11.87Q147.84 13.83 146.93 14.85L146.93 14.85L146.93 14.85Q146.02 15.88 144.40 15.88L144.40 15.88L144.40 15.88Q142.77 15.88 141.86 14.85L141.86 14.85L141.86 14.85Q140.95 13.83 140.95 11.87L140.95 11.87ZM144.40 14.78L144.40 14.78L144.40 14.78Q145.53 14.78 146.10 14.01L146.10 14.01L146.10 14.01Q146.66 13.23 146.66 11.79L146.66 11.79L146.66 9.77L146.66 9.77Q146.66 8.43 146.10 7.60L146.10 7.60L146.10 7.60Q145.53 6.78 144.40 6.78L144.40 6.78L144.40 6.78Q143.26 6.78 142.69 7.60L142.69 7.60L142.69 7.60Q142.13 8.43 142.13 9.77L142.13 9.77L142.13 11.79L142.13 11.79Q142.13 13.23 142.69 14.01L142.69 14.01L142.69 14.01Q143.26 14.78 144.40 14.78ZM163.03 12.15L163.03 15.68L161.85 15.68L161.85 12.40L161.85 12.40Q161.85 12.04 161.69 11.84L161.69 11.84L161.69 11.84Q161.52 11.65 161.10 11.65L161.10 11.65L158.05 11.65L158.05 15.68L156.87 15.68L156.87 5.88L160.37 5.88L160.37 5.88Q161.13 5.88 161.69 6.10L161.69 6.10L161.69 6.10Q162.25 6.31 162.62 6.68L162.62 6.68L162.62 6.68Q162.99 7.04 163.18 7.53L163.18 7.53L163.18 7.53Q163.37 8.01 163.37 8.54L163.37 8.54L163.37 8.96L163.37 8.96Q163.37 9.51 163.06 10.05L163.06 10.05L163.06 10.05Q162.76 10.60 162.13 10.89L162.13 10.89L162.13 11.06L162.13 11.06Q162.55 11.13 162.79 11.40L162.79 11.40L162.79 11.40Q163.03 11.66 163.03 12.15L163.03 12.15ZM158.05 6.97L158.05 10.56L160.23 10.56L160.23 10.56Q161.22 10.56 161.71 10.13L161.71 10.13L161.71 10.13Q162.19 9.70 162.19 8.88L162.19 8.88L162.19 8.62L162.19 8.62Q162.19 7.88 161.71 7.43L161.71 7.43L161.71 7.43Q161.22 6.97 160.23 6.97L160.23 6.97L158.05 6.97ZM172.56 15.68L172.56 5.88L178.50 5.88L178.50 6.97L173.74 6.97L173.74 10.22L178.42 10.22L178.42 11.31L173.74 11.31L173.74 14.59L178.58 14.59L178.58 15.68L172.56 15.68Z"></path></g></svg>