<svg id="visual" viewBox="0 0 540 960" width="540" height="960" xmlns="http://www.w3.org/2000/svg" xmlns:xlink="http://www.w3.org/1999/xlink" version="1.1"><rect x="0" y="0" width="540" height="960" fill="#ffffff"></rect><path d="M94 0L85.5 10C77 20 60 40 63.3 60C66.7 80 90.3 100 101.7 120C113 140 112 160 100.8 180C89.7 200 68.3 220 65.8 240C63.3 260 79.7 280 83.7 300C87.7 320 79.3 340 68.7 360C58 380 45 400 47.2 420C49.3 440 66.7 460 81.5 480C96.3 500 108.7 520 108.5 540C108.3 560 95.7 580 94 600C92.3 620 101.7 640 94.5 660C87.3 680 63.7 700 60.8 720C58 740 76 760 90 780C104 800 114 820 119.5 840C125 860 126 880 122.8 900C119.7 920 112.3 940 108.7 950L105 960L0 960L0 950C0 940 0 920 0 900C0 880 0 860 0 840C0 820 0 800 0 780C0 760 0 740 0 720C0 700 0 680 0 660C0 640 0 620 0 600C0 580 0 560 0 540C0 520 0 500 0 480C0 460 0 440 0 420C0 400 0 380 0 360C0 340 0 320 0 300C0 280 0 260 0 240C0 220 0 200 0 180C0 160 0 140 0 120C0 100 0 80 0 60C0 40 0 20 0 10L0 0Z" fill="#185242" stroke-linecap="round" stroke-linejoin="miter"></path></svg>